<svg xmlns="http://www.w3.org/2000/svg" width="32" height="32" viewBox="0 0 32 32" fill="none">
  <title>streamdown-svelte icon</title>
  <rect x="6" y="6" width="4.25" height="4.25" rx="1" fill="#FFE9E1" />
  <rect x="11.25" y="6" width="4.25" height="4.25" rx="1" fill="#FFD0BE" />
  <rect x="16.5" y="6" width="4.25" height="4.25" rx="1" fill="#FF9A73" />
  <rect x="21.75" y="6" width="4.25" height="4.25" rx="1" fill="#FF3E00" />

  <rect x="6" y="11.25" width="4.25" height="4.25" rx="1" fill="#FFE9E1" />
  <rect x="11.25" y="11.25" width="4.25" height="4.25" rx="1" fill="#FFD0BE" />
  <rect x="16.5" y="11.25" width="4.25" height="4.25" rx="1" fill="#FF9A73" />
  <rect x="21.75" y="11.25" width="4.25" height="4.25" rx="1" fill="#FF3E00" />

  <rect x="6" y="16.5" width="4.25" height="4.25" rx="1" fill="#FFE9E1" />
  <rect x="11.25" y="16.5" width="4.25" height="4.25" rx="1" fill="#FFD0BE" />
  <rect x="16.5" y="16.5" width="4.25" height="4.25" rx="1" fill="#FF9A73" />
  <rect x="21.75" y="16.5" width="4.25" height="4.25" rx="1" fill="#FF3E00" />

  <rect x="6" y="21.75" width="4.25" height="4.25" rx="1" fill="#FFE9E1" />
  <rect x="11.25" y="21.75" width="4.25" height="4.25" rx="1" fill="#FFD0BE" />
  <rect x="16.5" y="21.75" width="4.25" height="4.25" rx="1" fill="#FF9A73" />
  <rect x="21.75" y="21.75" width="4.25" height="4.25" rx="1" fill="#FF3E00" />
</svg>
